# xmcd
#
# Track frame offsets:
#	150
#	20319
#	35676
#	45616
#	60552
#	75235
#	86852
#	94616
#	105929
#	126103
#	140479
#	149719
#	163004
#	184683
#	203589
#	216226
#	226425
#	240914
#	256671
#
# Disc length: 3615 seconds
#
# Revision: 0
# Processed by: cddbd v1.5.2PL0 Copyright (c) Steve Scherf et al.
# Submitted via: EZCDAudioConverter 3.1.0.1
#
DISCID=f70e1d13
DTITLE=Fleetwood Mac - BBC 1967-68 FM
DYEAR=2016
DGENRE=Blues
TTITLE0=Sweet Little Angel
TTITLE1=Bee-I-Bicky-Bop
TTITLE2=Where You Belong
TTITLE3=Mean Old World
TTITLE4=Please Find My Baby
TTITLE5=Black Magic Woman
TTITLE6=Peggy Sue Got Married
TTITLE7=That Ain´t It
TTITLE8=Psychedelic Send Up
TTITLE9=Dead Shrimp Blues
TTITLE10=Sheila
TTITLE11=Evening Boogie
TTITLE12=You Need Love
TTITLE13=May I Have A Talk With You
TTITLE14=Bo Diddley
TTITLE15=Wine, Whisky And Women
TTITLE16=Crutch And Cane
TTITLE17=If You Be My Baby
TTITLE18=Crazy For My Baby
EXTD=
EXTT0=
EXTT1=
EXTT2=
EXTT3=
EXTT4=
EXTT5=
EXTT6=
EXTT7=
EXTT8=
EXTT9=
EXTT10=
EXTT11=
EXTT12=
EXTT13=
EXTT14=
EXTT15=
EXTT16=
EXTT17=
EXTT18=
PLAYORDER=
